<svg xmlns="http://www.w3.org/2000/svg" xmlns:xlink="http://www.w3.org/1999/xlink" viewBox="0 0 169 60.71"><defs><style>.cls-1,.cls-3{fill:none;stroke:#000;stroke-miterlimit:10;}.cls-1{stroke-width:2px;filter:url(#luminosity-noclip);}.cls-2{mask:url(#mask);}.cls-3{stroke-linecap:round;stroke-width:3px;}</style><filter id="luminosity-noclip" x="0" y="5.37" width="169" height="23.43" filterUnits="userSpaceOnUse" color-interpolation-filters="sRGB"><feFlood flood-color="#fff" result="bg"/><feBlend in="SourceGraphic" in2="bg"/></filter><mask id="mask" x="0" y="5.37" width="169" height="23.43" maskUnits="userSpaceOnUse"><path class="cls-1" d="M46.53,21.85a7.42,7.42,0,0,1-3.84-1,6.93,6.93,0,0,1-2.61-2.73,8.33,8.33,0,0,1-.94-4,8,8,0,0,1,1-4,7.14,7.14,0,0,1,2.74-2.74,8.55,8.55,0,0,1,7.95,0,7.16,7.16,0,0,1,2.72,2.74,8.17,8.17,0,0,1,1,4l-1.39.48a8.12,8.12,0,0,1-.84,3.75A6.49,6.49,0,0,1,50,20.92,6.41,6.41,0,0,1,46.53,21.85Zm.33,5.95A8.64,8.64,0,0,1,43.07,27a7.74,7.74,0,0,1-2.82-2.25A1,1,0,0,1,40,24a.89.89,0,0,1,.44-.68,1.2,1.2,0,0,1,.89-.2,1.13,1.13,0,0,1,.75.48,5.53,5.53,0,0,0,2,1.55,6.52,6.52,0,0,0,2.84.59,5.34,5.34,0,0,0,2.7-.71,5,5,0,0,0,1.93-2,6.71,6.71,0,0,0,.71-3.17V15.65l.83-1.89,1.47.36v5.79a8,8,0,0,1-1,4,7.39,7.39,0,0,1-6.7,3.88Zm0-8.06a5.38,5.38,0,0,0,2.8-.72,5.27,5.27,0,0,0,1.9-2,5.86,5.86,0,0,0,.7-2.91,6,6,0,0,0-.7-2.92,5.15,5.15,0,0,0-1.9-2,5.8,5.8,0,0,0-5.6,0,5.25,5.25,0,0,0-1.94,2,6,6,0,0,0-.7,2.92,5.86,5.86,0,0,0,.7,2.91,5.25,5.25,0,0,0,4.74,2.71Z"/></mask></defs><g id="Layer_2" data-name="Layer 2"><g id="Layer_1-2" data-name="Layer 1"><g class="cls-2"><line class="cls-3" x1="1.5" y1="26.44" x2="167.5" y2="26.44"/></g><path d="M9.19,21.85a7.48,7.48,0,0,1-6.63-3.77,7.75,7.75,0,0,1-1-3.9v-13A1.18,1.18,0,0,1,1.84.32,1.18,1.18,0,0,1,2.71,0a1.15,1.15,0,0,1,.85.32,1.18,1.18,0,0,1,.32.87v8a6.74,6.74,0,0,1,2.39-2,7,7,0,0,1,3.28-.76,7.08,7.08,0,0,1,3.78,1A7.22,7.22,0,0,1,16,10.15a8,8,0,0,1,1,3.94,7.85,7.85,0,0,1-1,4,7.56,7.56,0,0,1-2.76,2.77A7.78,7.78,0,0,1,9.19,21.85Zm0-2.11A5.25,5.25,0,0,0,12,19a5.4,5.4,0,0,0,1.95-2,5.8,5.8,0,0,0,.71-2.88,5.83,5.83,0,0,0-.71-2.86A5.32,5.32,0,0,0,9.19,8.48a5.25,5.25,0,0,0-4.67,2.75,5.93,5.93,0,0,0-.69,2.86A5.9,5.9,0,0,0,4.52,17a5.35,5.35,0,0,0,1.93,2A5.2,5.2,0,0,0,9.19,19.74Z"/><path d="M27.73,21.85a7.17,7.17,0,0,1-3.78-1,7.4,7.4,0,0,1-2.64-2.77,8,8,0,0,1-1-4,7.81,7.81,0,0,1,1-4,7.51,7.51,0,0,1,2.77-2.77,7.74,7.74,0,0,1,10.61,2.77,8,8,0,0,1,1,4l-1,.47a7.34,7.34,0,0,1-.93,3.7,7,7,0,0,1-2.53,2.6A6.88,6.88,0,0,1,27.73,21.85Zm.34-2.11A5.2,5.2,0,0,0,30.83,19a5.26,5.26,0,0,0,1.92-2,5.8,5.8,0,0,0,.71-2.86,5.85,5.85,0,0,0-.71-2.88,5.45,5.45,0,0,0-1.92-2,5.12,5.12,0,0,0-2.76-.75,5.26,5.26,0,0,0-2.77.75,5.55,5.55,0,0,0-2,2,5.75,5.75,0,0,0-.72,2.88A5.71,5.71,0,0,0,23.34,17a5.33,5.33,0,0,0,4.73,2.76Zm6.53,2a1.29,1.29,0,0,1-.88-.32,1.09,1.09,0,0,1-.34-.85V16l.53-2.42,1.86.58v6.42a1.09,1.09,0,0,1-.34.85A1.16,1.16,0,0,1,34.6,21.71Z"/><path d="M46.53,21.85a7.37,7.37,0,0,1-3.84-1,6.93,6.93,0,0,1-2.61-2.73,8.34,8.34,0,0,1-.95-4,8.06,8.06,0,0,1,1-4,7.21,7.21,0,0,1,2.74-2.74,8.55,8.55,0,0,1,8,0,7.12,7.12,0,0,1,2.73,2.74,8.39,8.39,0,0,1,1,4l-1.39.47a8,8,0,0,1-.85,3.76,6.31,6.31,0,0,1-5.79,3.5Zm.33,5.95A8.61,8.61,0,0,1,43.07,27a7.79,7.79,0,0,1-2.83-2.25A1,1,0,0,1,40,24a.92.92,0,0,1,.45-.68,1.17,1.17,0,0,1,1.64.28,5.66,5.66,0,0,0,2,1.55,6.47,6.47,0,0,0,2.83.59,5.29,5.29,0,0,0,2.7-.71,5,5,0,0,0,1.93-2.05,6.57,6.57,0,0,0,.71-3.17V15.65l.84-1.89,1.47.36V19.9a8,8,0,0,1-1,4,7.42,7.42,0,0,1-6.7,3.88Zm0-8.06A5.21,5.21,0,0,0,51.56,17a6,6,0,0,0,.69-2.91,6.08,6.08,0,0,0-.69-2.92,5.18,5.18,0,0,0-1.91-2,5.32,5.32,0,0,0-2.79-.72,5.44,5.44,0,0,0-2.81.72,5.23,5.23,0,0,0-1.93,2,6,6,0,0,0-.71,2.92A5.89,5.89,0,0,0,42.12,17a5.24,5.24,0,0,0,1.93,2A5.35,5.35,0,0,0,46.86,19.74Z"/><path d="M67.7,21.42a8,8,0,0,1-4.15.1,7.24,7.24,0,0,1-3.37-1.93,8.1,8.1,0,0,1-2-3.6A8.32,8.32,0,0,1,58,11.86a7.15,7.15,0,0,1,1.8-3.32,7.25,7.25,0,0,1,3.43-2,6.92,6.92,0,0,1,3.8,0,6.39,6.39,0,0,1,3,1.94A8.39,8.39,0,0,1,71.92,12a1,1,0,0,1-.09.82,1.08,1.08,0,0,1-.68.48l-11.22,3-.5-1.85L70.79,11.4l-.94,1.12A6,6,0,0,0,68.6,10a4.53,4.53,0,0,0-2.11-1.42,4.69,4.69,0,0,0-2.68,0A5.21,5.21,0,0,0,61.33,10a4.7,4.7,0,0,0-1.22,2.42,6.53,6.53,0,0,0,.16,3,5.75,5.75,0,0,0,1.46,2.63,5.21,5.21,0,0,0,2.44,1.42,5.85,5.85,0,0,0,3-.06,6.1,6.1,0,0,0,1.78-.83,4.65,4.65,0,0,0,1.3-1.21,1.33,1.33,0,0,1,.67-.46.94.94,0,0,1,.74.05,1.08,1.08,0,0,1,.62.64.87.87,0,0,1-.17.79,7.38,7.38,0,0,1-1.92,1.84A8,8,0,0,1,67.7,21.42Z"/><path d="M75,9.09a1.12,1.12,0,0,1-.78-.29,1,1,0,0,1-.3-.71,1,1,0,0,1,.3-.74A1.12,1.12,0,0,1,75,7.06h6.87a1.12,1.12,0,0,1,.78.29,1,1,0,0,1,.3.74,1,1,0,0,1-.3.71,1.12,1.12,0,0,1-.78.29Zm6.67,12.62A4.88,4.88,0,0,1,79.08,21a4.94,4.94,0,0,1-1.79-1.92,5.7,5.7,0,0,1-.66-2.75V2.84A1.17,1.17,0,0,1,77,2a1.15,1.15,0,0,1,.85-.33,1.13,1.13,0,0,1,.83.33,1.11,1.11,0,0,1,.34.84V16.35a3.11,3.11,0,0,0,.76,2.16,2.47,2.47,0,0,0,1.93.87h.84a1,1,0,0,1,.75.33,1.19,1.19,0,0,1,.3.83,1,1,0,0,1-.37.85,1.44,1.44,0,0,1-1,.32Z"/><path d="M93.62,21.85a7.17,7.17,0,0,1-3.78-1,7.32,7.32,0,0,1-2.64-2.77,8,8,0,0,1-1-4,7.72,7.72,0,0,1,1-4A7.49,7.49,0,0,1,90,7.38a8.15,8.15,0,0,1,7.86,0,7.53,7.53,0,0,1,2.75,2.77,7.93,7.93,0,0,1,1,4l-.94.47a7.34,7.34,0,0,1-.93,3.7,7.17,7.17,0,0,1-2.53,2.6A6.93,6.93,0,0,1,93.62,21.85ZM94,19.74A5.24,5.24,0,0,0,96.72,19a5.41,5.41,0,0,0,1.92-2,5.8,5.8,0,0,0,.71-2.86,5.85,5.85,0,0,0-.71-2.88,5.61,5.61,0,0,0-1.92-2,5.47,5.47,0,0,0-5.53,0,5.48,5.48,0,0,0-2,2,5.66,5.66,0,0,0-.73,2.88A5.61,5.61,0,0,0,89.23,17,5.33,5.33,0,0,0,94,19.74Zm6.53,2a1.24,1.24,0,0,1-.87-.32,1.09,1.09,0,0,1-.35-.85V16l.53-2.42,1.86.58v6.42a1.11,1.11,0,0,1-.33.85A1.17,1.17,0,0,1,100.48,21.71Z"/><path d="M3.67,60.71a1.86,1.86,0,0,1-1.89-1.88V34.33A1.81,1.81,0,0,1,2.33,33a1.86,1.86,0,0,1,1.34-.53H20a1.89,1.89,0,0,1,1.34.49,1.72,1.72,0,0,1,.51,1.29,1.61,1.61,0,0,1-.51,1.23,1.92,1.92,0,0,1-1.34.47H5.55v8.79H15.93a1.83,1.83,0,0,1,1.34.49,1.77,1.77,0,0,1,0,2.49,1.83,1.83,0,0,1-1.34.49H5.55v9.05H20a1.92,1.92,0,0,1,1.34.47,1.58,1.58,0,0,1,.51,1.23,1.68,1.68,0,0,1-.51,1.28,1.84,1.84,0,0,1-1.34.49Z"/><path d="M27,60.71a1.54,1.54,0,0,1-1.26-.52A1.87,1.87,0,0,1,25.3,59a2.12,2.12,0,0,1,.44-1.29l9.11-12.16,1.63-1.44L44.8,33a1.74,1.74,0,0,1,1.34-.55,1.57,1.57,0,0,1,1.2.47,1.83,1.83,0,0,1,.47,1.16,2.19,2.19,0,0,1-.4,1.34L38.62,47.14l-1.56,1.38L28.31,60.17A1.81,1.81,0,0,1,27,60.71Zm18.93,0a1.88,1.88,0,0,1-.82-.16,1.72,1.72,0,0,1-.63-.53L36.05,48.34l-1.34-1.12-8.5-11.8a1.74,1.74,0,0,1-.36-1.27A2,2,0,0,1,26.37,33a1.8,1.8,0,0,1,2.55,0l8,11.14,1.38,1.12,8.93,12.41a1.92,1.92,0,0,1,.4,1.3,1.84,1.84,0,0,1-.49,1.23A1.56,1.56,0,0,1,45.93,60.71Z"/><path d="M54.9,60.71A1.84,1.84,0,0,1,53,58.83V34.33A1.8,1.8,0,0,1,53.56,33a1.86,1.86,0,0,1,1.34-.53h7.24A9.54,9.54,0,0,1,67,33.65,8.39,8.39,0,0,1,70.22,37a9.88,9.88,0,0,1,1.18,4.86,9.38,9.38,0,0,1-1.18,4.71A8.3,8.3,0,0,1,67,49.75a9.84,9.84,0,0,1-4.81,1.16H56.78v7.92a1.85,1.85,0,0,1-.52,1.34A1.82,1.82,0,0,1,54.9,60.71Zm1.88-13.28h5.36a5.86,5.86,0,0,0,2.93-.72,5.35,5.35,0,0,0,2-2,5.75,5.75,0,0,0,.72-2.9,6.28,6.28,0,0,0-.72-3,5.45,5.45,0,0,0-2-2.08,5.59,5.59,0,0,0-2.93-.76H56.78Z"/><path d="M77.44,60.71a1.84,1.84,0,0,1-1.88-1.88V34.33A1.8,1.8,0,0,1,76.1,33a1.86,1.86,0,0,1,1.34-.53H84a9.88,9.88,0,0,1,4.81,1.14A8.45,8.45,0,0,1,92,36.72a9,9,0,0,1,1.17,4.63,8,8,0,0,1-4.45,7.39A10.33,10.33,0,0,1,84,49.82H79.32v9a1.85,1.85,0,0,1-.52,1.34A1.82,1.82,0,0,1,77.44,60.71Zm1.88-14.36H84a6.35,6.35,0,0,0,2.93-.64,4.82,4.82,0,0,0,2-1.77,4.75,4.75,0,0,0,.73-2.59,5.48,5.48,0,0,0-.73-2.82,5,5,0,0,0-2-1.92A6.12,6.12,0,0,0,84,35.93H79.32ZM92.46,60.71a1.93,1.93,0,0,1-.93-.22,1.75,1.75,0,0,1-.7-.68l-6.52-10.5,3.66-1,5.93,9.55a1.88,1.88,0,0,1,.18,2A1.67,1.67,0,0,1,92.46,60.71Z"/><path d="M100.31,60.71A1.82,1.82,0,0,1,99,60.17a1.8,1.8,0,0,1-.55-1.34V34.33A1.77,1.77,0,0,1,99,33a1.86,1.86,0,0,1,1.34-.53h16.35a1.89,1.89,0,0,1,1.34.49,1.72,1.72,0,0,1,.51,1.29,1.61,1.61,0,0,1-.51,1.23,1.92,1.92,0,0,1-1.34.47H102.19v8.79h10.38a1.83,1.83,0,0,1,1.34.49,1.77,1.77,0,0,1,0,2.49,1.83,1.83,0,0,1-1.34.49H102.19v9.05h14.47a1.92,1.92,0,0,1,1.34.47,1.58,1.58,0,0,1,.51,1.23,1.68,1.68,0,0,1-.51,1.28,1.84,1.84,0,0,1-1.34.49Z"/><path d="M133,60.71a13.11,13.11,0,0,1-4.31-.7,11.43,11.43,0,0,1-3.57-2,8,8,0,0,1-2.23-2.93,1.41,1.41,0,0,1,0-1.38,2,2,0,0,1,2.51-.62,2.2,2.2,0,0,1,.94,1,4.44,4.44,0,0,0,1.39,1.62,7.76,7.76,0,0,0,2.35,1.2,9.41,9.41,0,0,0,6-.07,5.47,5.47,0,0,0,2.32-1.54,3.68,3.68,0,0,0,.88-2.49,4.65,4.65,0,0,0-1.47-3.35A7.78,7.78,0,0,0,133,47.64a12.08,12.08,0,0,1-6.89-2.58,6.74,6.74,0,0,1-2.5-5.33,6.15,6.15,0,0,1,1.3-4,8.2,8.2,0,0,1,3.55-2.47,14.17,14.17,0,0,1,5-.85,10.71,10.71,0,0,1,3.76.6,9,9,0,0,1,2.81,1.66,11.12,11.12,0,0,1,2.09,2.51,2.26,2.26,0,0,1,.4,1.47,1.43,1.43,0,0,1-.69,1.07,1.61,1.61,0,0,1-1.45.18,2,2,0,0,1-1.16-.92,6.42,6.42,0,0,0-1.38-1.73A6.11,6.11,0,0,0,136,36.18a7.43,7.43,0,0,0-2.58-.41,8.49,8.49,0,0,0-4.37,1,3.34,3.34,0,0,0-1.77,3.1,4.05,4.05,0,0,0,.55,2,4.37,4.37,0,0,0,2,1.67,12.69,12.69,0,0,0,4.22,1,11.18,11.18,0,0,1,6.55,2.56,7.26,7.26,0,0,1,2.35,5.64,7,7,0,0,1-.83,3.5,7.77,7.77,0,0,1-2.22,2.49,9.92,9.92,0,0,1-3.18,1.5A13.74,13.74,0,0,1,133,60.71Z"/><path d="M157.29,60.71A13.11,13.11,0,0,1,153,60a11.43,11.43,0,0,1-3.57-2,7.85,7.85,0,0,1-2.22-2.93,1.41,1.41,0,0,1,0-1.38,2,2,0,0,1,2.51-.62,2.15,2.15,0,0,1,.94,1A4.44,4.44,0,0,0,152,55.73a7.76,7.76,0,0,0,2.35,1.2,9.41,9.41,0,0,0,6-.07,5.47,5.47,0,0,0,2.32-1.54,3.63,3.63,0,0,0,.88-2.49,4.65,4.65,0,0,0-1.47-3.35,7.78,7.78,0,0,0-4.82-1.84,12,12,0,0,1-6.88-2.58,6.72,6.72,0,0,1-2.51-5.33,6.15,6.15,0,0,1,1.3-4,8.26,8.26,0,0,1,3.55-2.47,14.21,14.21,0,0,1,5-.85,10.71,10.71,0,0,1,3.76.6,8.93,8.93,0,0,1,2.81,1.66,11.12,11.12,0,0,1,2.09,2.51,2.2,2.2,0,0,1,.4,1.47,1.43,1.43,0,0,1-.69,1.07,1.6,1.6,0,0,1-1.44.18,2,2,0,0,1-1.17-.92,6.42,6.42,0,0,0-1.38-1.73,6.17,6.17,0,0,0-1.9-1.11,7.47,7.47,0,0,0-2.58-.41,8.51,8.51,0,0,0-4.38,1,3.34,3.34,0,0,0-1.77,3.1,4.05,4.05,0,0,0,.55,2,4.37,4.37,0,0,0,2,1.67,12.75,12.75,0,0,0,4.22,1,11.18,11.18,0,0,1,6.55,2.56,7.26,7.26,0,0,1,2.35,5.64,7,7,0,0,1-.83,3.5,7.77,7.77,0,0,1-2.22,2.49,9.92,9.92,0,0,1-3.18,1.5A13.74,13.74,0,0,1,157.29,60.71Z"/></g></g></svg>