<svg xmlns="http://www.w3.org/2000/svg" xmlns:xlink="http://www.w3.org/1999/xlink" viewBox="0 0 166.5 154.54"><defs><style>.cls-1,.cls-10,.cls-15,.cls-16,.cls-2,.cls-4{fill:none;}.cls-1,.cls-10,.cls-11,.cls-12,.cls-14,.cls-15,.cls-2,.cls-4{stroke:#000;}.cls-1,.cls-10,.cls-11,.cls-12,.cls-13,.cls-16,.cls-4{stroke-miterlimit:10;}.cls-12,.cls-13,.cls-15,.cls-16,.cls-2,.cls-4{stroke-linecap:round;}.cls-14,.cls-15,.cls-2{stroke-linejoin:round;}.cls-2{stroke-width:5px;}.cls-3{mask:url(#mask);}.cls-4{stroke-width:3px;}.cls-5{fill:#ffb84d;}.cls-6{fill:#3bbf4d;}.cls-14,.cls-7{fill:#ff4d4d;}.cls-8{fill:#a67c52;}.cls-9{fill:#ffff4d;}.cls-10,.cls-11,.cls-12,.cls-13,.cls-14,.cls-15,.cls-16{stroke-width:2px;}.cls-11,.cls-13,.cls-17{fill:#fff;}.cls-13,.cls-16{stroke:#fff;}.cls-18{filter:url(#luminosity-noclip);}</style><filter id="luminosity-noclip" x="0" y="99.04" width="166.5" height="26.91" filterUnits="userSpaceOnUse" color-interpolation-filters="sRGB"><feFlood flood-color="#fff" result="bg"/><feBlend in="SourceGraphic" in2="bg"/></filter><mask id="mask" x="0" y="99.04" width="166.5" height="26.91" maskUnits="userSpaceOnUse"><g class="cls-18"><path d="M16.62,120.1a7.16,7.16,0,0,1-6.3-3.58,7.4,7.4,0,0,1-1-3.71V101.13a1.43,1.43,0,0,1,.4-1.07,1.46,1.46,0,0,1,1.07-.41,1.44,1.44,0,0,1,1,.41,1.49,1.49,0,0,1,.4,1.07v6.09a6.92,6.92,0,0,1,1.57-1.11,6.66,6.66,0,0,1,3.13-.73,6.8,6.8,0,0,1,3.61,1,6.9,6.9,0,0,1,2.5,2.64,7.61,7.61,0,0,1,.91,3.74,7.39,7.39,0,0,1-1,3.77,7.29,7.29,0,0,1-2.62,2.64A7.39,7.39,0,0,1,16.62,120.1Zm0-12a4.29,4.29,0,0,0-3.84,2.26,4.89,4.89,0,0,0-.58,2.39,4.81,4.81,0,0,0,.58,2.39,4.4,4.4,0,0,0,1.59,1.67,4.25,4.25,0,0,0,2.25.61,4.48,4.48,0,0,0,2.31-.61,4.6,4.6,0,0,0,1.61-1.67,5.19,5.19,0,0,0,0-4.77,4.34,4.34,0,0,0-3.92-2.27Z"/><path d="M33.29,120.1a6.77,6.77,0,0,1-3.6-1,7.07,7.07,0,0,1-2.52-2.63,7.69,7.69,0,0,1-.92-3.75,7.39,7.39,0,0,1,1-3.77,7.19,7.19,0,0,1,2.64-2.64,7.73,7.73,0,0,1,7.46,0A7.21,7.21,0,0,1,39.93,109a7.62,7.62,0,0,1,1,3.77v5.78a1.39,1.39,0,0,1-.42,1,1.56,1.56,0,0,1-2.09,0,1.36,1.36,0,0,1-.44-1v-.27a6.44,6.44,0,0,1-1.21.92A6.62,6.62,0,0,1,33.29,120.1Zm.3-12a4.38,4.38,0,0,0-2.27.61,4.74,4.74,0,0,0-1.63,1.67,5.12,5.12,0,0,0,0,4.77,4.63,4.63,0,0,0,1.62,1.67,4.44,4.44,0,0,0,2.28.6,4.29,4.29,0,0,0,2.28-.6,4.41,4.41,0,0,0,1.59-1.67,5.19,5.19,0,0,0,0-4.77,4.63,4.63,0,0,0-1.59-1.67A4.23,4.23,0,0,0,33.59,108.08Z"/><path d="M50.49,125.45a8.14,8.14,0,0,1-3.58-.76,7.57,7.57,0,0,1-2.68-2.14,1.26,1.26,0,0,1-.31-1,1.23,1.23,0,0,1,.58-.9,1.44,1.44,0,0,1,.82-.25,1.23,1.23,0,0,1,.27,0,1.43,1.43,0,0,1,.93.58,4.71,4.71,0,0,0,1.64,1.28,5.56,5.56,0,0,0,2.38.48,4.3,4.3,0,0,0,2.22-.58,4.16,4.16,0,0,0,1.59-1.68,5.64,5.64,0,0,0,.59-2.52,6.13,6.13,0,0,1-1.44,1.24,6.21,6.21,0,0,1-3.31.89,7,7,0,0,1-3.65-.94,6.71,6.71,0,0,1-2.5-2.62,7.83,7.83,0,0,1-.9-3.79,7.53,7.53,0,0,1,1-3.82,6.82,6.82,0,0,1,2.61-2.61,8,8,0,0,1,7.54,0,6.79,6.79,0,0,1,2.6,2.61,7.84,7.84,0,0,1,1,3.82V118a7.72,7.72,0,0,1-1,3.81,7,7,0,0,1-6.37,3.69Zm0-17.37a4.55,4.55,0,0,0-2.32.59,4.35,4.35,0,0,0-1.59,1.65,4.94,4.94,0,0,0-.59,2.43,4.87,4.87,0,0,0,.59,2.42,4.39,4.39,0,0,0,1.59,1.64,4.55,4.55,0,0,0,2.32.59,4.48,4.48,0,0,0,2.31-.59,4.25,4.25,0,0,0,1.56-1.64,4.87,4.87,0,0,0,.58-2.42,4.93,4.93,0,0,0-.58-2.43,4.2,4.2,0,0,0-1.56-1.65A4.48,4.48,0,0,0,50.49,108.08Z"/><path d="M67.44,120.1a7.59,7.59,0,0,1-3.82-.94A6.8,6.8,0,0,1,61,116.55a7.55,7.55,0,0,1-1-3.8,7.85,7.85,0,0,1,.9-3.8,6.7,6.7,0,0,1,2.48-2.61,6.87,6.87,0,0,1,3.64-1,6.64,6.64,0,0,1,3.52.92,6.18,6.18,0,0,1,2.33,2.55,8.16,8.16,0,0,1,.8,3.65,1.33,1.33,0,0,1-.4,1,1.35,1.35,0,0,1-1,.37H62.89a4.63,4.63,0,0,0,.5,1.33A4.24,4.24,0,0,0,65,116.83a4.8,4.8,0,0,0,2.42.6,5.2,5.2,0,0,0,1.61-.28,3.75,3.75,0,0,0,1.28-.68,1.6,1.6,0,0,1,.93-.33h0a1.33,1.33,0,0,1,.92.31,1.36,1.36,0,0,1,.52,1,1.17,1.17,0,0,1-.49,1A7,7,0,0,1,70,119.63,7.72,7.72,0,0,1,67.44,120.1Zm3.46-8.77a4.51,4.51,0,0,0-.38-1.16,3.73,3.73,0,0,0-1.35-1.56,3.86,3.86,0,0,0-2.11-.56,4.35,4.35,0,0,0-2.28.59,3.92,3.92,0,0,0-1.47,1.65,4.41,4.41,0,0,0-.36,1Z"/><path d="M81.78,120a4.73,4.73,0,0,1-2.53-.69,4.88,4.88,0,0,1-1.76-1.87,5.63,5.63,0,0,1-.63-2.67v-6.12H75.78a1.36,1.36,0,0,1-1-.38,1.23,1.23,0,0,1-.4-.92,1.26,1.26,0,0,1,.4-1,1.36,1.36,0,0,1,1-.38h1.08v-3.4a1.45,1.45,0,1,1,2.9,0V106H82a1.34,1.34,0,0,1,1,.38,1.28,1.28,0,0,1,.4,1,1.24,1.24,0,0,1-.4.92,1.34,1.34,0,0,1-1,.38h-2.2v6.12a2.46,2.46,0,0,0,.58,1.69,1.85,1.85,0,0,0,1.44.64h.75a1.29,1.29,0,0,1,1,.43,1.46,1.46,0,0,1,.38,1,1.35,1.35,0,0,1-.48,1.07,1.67,1.67,0,0,1-1.12.38Z"/><path d="M92.53,120.1a6.78,6.78,0,0,1-3.61-1,7,7,0,0,1-2.51-2.63,7.58,7.58,0,0,1-.93-3.75,7.4,7.4,0,0,1,1-3.77,7.16,7.16,0,0,1,2.63-2.64,7.73,7.73,0,0,1,7.46,0A7.21,7.21,0,0,1,99.16,109a7.51,7.51,0,0,1,1,3.77v5.78a1.39,1.39,0,0,1-.42,1,1.55,1.55,0,0,1-2.08,0,1.33,1.33,0,0,1-.45-1v-.27a6.37,6.37,0,0,1-1.2.92A6.67,6.67,0,0,1,92.53,120.1Zm.3-12a4.42,4.42,0,0,0-2.28.61,4.89,4.89,0,0,0-1.62,6.44,4.55,4.55,0,0,0,1.62,1.67,4.39,4.39,0,0,0,2.28.6,4.34,4.34,0,0,0,2.28-.6,4.38,4.38,0,0,0,1.58-1.67,5.12,5.12,0,0,0,0-4.77,4.61,4.61,0,0,0-1.58-1.67A4.25,4.25,0,0,0,92.83,108.08Z"/><path class="cls-1" d="M16.62,120.1a7.16,7.16,0,0,1-6.3-3.58,7.4,7.4,0,0,1-1-3.71V101.13a1.43,1.43,0,0,1,.4-1.07,1.46,1.46,0,0,1,1.07-.41,1.44,1.44,0,0,1,1,.41,1.49,1.49,0,0,1,.4,1.07v6.09a6.92,6.92,0,0,1,1.57-1.11,6.66,6.66,0,0,1,3.13-.73,6.8,6.8,0,0,1,3.61,1,6.9,6.9,0,0,1,2.5,2.64,7.61,7.61,0,0,1,.91,3.74,7.39,7.39,0,0,1-1,3.77,7.29,7.29,0,0,1-2.62,2.64A7.39,7.39,0,0,1,16.62,120.1Zm0-12a4.29,4.29,0,0,0-3.84,2.26,4.89,4.89,0,0,0-.58,2.39,4.81,4.81,0,0,0,.58,2.39,4.4,4.4,0,0,0,1.59,1.67,4.25,4.25,0,0,0,2.25.61,4.48,4.48,0,0,0,2.31-.61,4.6,4.6,0,0,0,1.61-1.67,5.19,5.19,0,0,0,0-4.77,4.34,4.34,0,0,0-3.92-2.27Z"/><path class="cls-1" d="M33.29,120.1a6.77,6.77,0,0,1-3.6-1,7.07,7.07,0,0,1-2.52-2.63,7.69,7.69,0,0,1-.92-3.75,7.39,7.39,0,0,1,1-3.77,7.19,7.19,0,0,1,2.64-2.64,7.73,7.73,0,0,1,7.46,0A7.21,7.21,0,0,1,39.93,109a7.62,7.62,0,0,1,1,3.77v5.78a1.39,1.39,0,0,1-.42,1,1.56,1.56,0,0,1-2.09,0,1.36,1.36,0,0,1-.44-1v-.27a6.44,6.44,0,0,1-1.21.92A6.62,6.62,0,0,1,33.29,120.1Zm.3-12a4.38,4.38,0,0,0-2.27.61,4.74,4.74,0,0,0-1.63,1.67,5.12,5.12,0,0,0,0,4.77,4.63,4.63,0,0,0,1.62,1.67,4.44,4.44,0,0,0,2.28.6,4.29,4.29,0,0,0,2.28-.6,4.41,4.41,0,0,0,1.59-1.67,5.19,5.19,0,0,0,0-4.77,4.63,4.63,0,0,0-1.59-1.67A4.23,4.23,0,0,0,33.59,108.08Z"/><path class="cls-1" d="M50.49,125.45a8.14,8.14,0,0,1-3.58-.76,7.57,7.57,0,0,1-2.68-2.14,1.26,1.26,0,0,1-.31-1,1.23,1.23,0,0,1,.58-.9,1.44,1.44,0,0,1,.82-.25,1.23,1.23,0,0,1,.27,0,1.43,1.43,0,0,1,.93.58,4.71,4.71,0,0,0,1.64,1.28,5.56,5.56,0,0,0,2.38.48,4.3,4.3,0,0,0,2.22-.58,4.16,4.16,0,0,0,1.59-1.68,5.64,5.64,0,0,0,.59-2.52,6.13,6.13,0,0,1-1.44,1.24,6.21,6.21,0,0,1-3.31.89,7,7,0,0,1-3.65-.94,6.71,6.71,0,0,1-2.5-2.62,7.83,7.83,0,0,1-.9-3.79,7.53,7.53,0,0,1,1-3.82,6.82,6.82,0,0,1,2.61-2.61,8,8,0,0,1,7.54,0,6.79,6.79,0,0,1,2.6,2.61,7.84,7.84,0,0,1,1,3.82V118a7.72,7.72,0,0,1-1,3.81,7,7,0,0,1-6.37,3.69Zm0-17.37a4.55,4.55,0,0,0-2.32.59,4.35,4.35,0,0,0-1.59,1.65,4.94,4.94,0,0,0-.59,2.43,4.87,4.87,0,0,0,.59,2.42,4.39,4.39,0,0,0,1.59,1.64,4.55,4.55,0,0,0,2.32.59,4.48,4.48,0,0,0,2.31-.59,4.25,4.25,0,0,0,1.56-1.64,4.87,4.87,0,0,0,.58-2.42,4.93,4.93,0,0,0-.58-2.43,4.2,4.2,0,0,0-1.56-1.65A4.48,4.48,0,0,0,50.49,108.08Z"/><path class="cls-1" d="M67.44,120.1a7.59,7.59,0,0,1-3.82-.94A6.8,6.8,0,0,1,61,116.55a7.55,7.55,0,0,1-1-3.8,7.85,7.85,0,0,1,.9-3.8,6.7,6.7,0,0,1,2.48-2.61,6.87,6.87,0,0,1,3.64-1,6.64,6.64,0,0,1,3.52.92,6.18,6.18,0,0,1,2.33,2.55,8.16,8.16,0,0,1,.8,3.65,1.33,1.33,0,0,1-.4,1,1.35,1.35,0,0,1-1,.37H62.89a4.63,4.63,0,0,0,.5,1.33A4.24,4.24,0,0,0,65,116.83a4.8,4.8,0,0,0,2.42.6,5.2,5.2,0,0,0,1.61-.28,3.75,3.75,0,0,0,1.28-.68,1.6,1.6,0,0,1,.93-.33h0a1.33,1.33,0,0,1,.92.31,1.36,1.36,0,0,1,.52,1,1.17,1.17,0,0,1-.49,1A7,7,0,0,1,70,119.63,7.72,7.72,0,0,1,67.44,120.1Zm3.46-8.77a4.51,4.51,0,0,0-.38-1.16,3.73,3.73,0,0,0-1.35-1.56,3.86,3.86,0,0,0-2.11-.56,4.35,4.35,0,0,0-2.28.59,3.92,3.92,0,0,0-1.47,1.65,4.41,4.41,0,0,0-.36,1Z"/><path class="cls-1" d="M81.78,120a4.73,4.73,0,0,1-2.53-.69,4.88,4.88,0,0,1-1.76-1.87,5.63,5.63,0,0,1-.63-2.67v-6.12H75.78a1.36,1.36,0,0,1-1-.38,1.23,1.23,0,0,1-.4-.92,1.26,1.26,0,0,1,.4-1,1.36,1.36,0,0,1,1-.38h1.08v-3.4a1.45,1.45,0,1,1,2.9,0V106H82a1.34,1.34,0,0,1,1,.38,1.28,1.28,0,0,1,.4,1,1.24,1.24,0,0,1-.4.92,1.34,1.34,0,0,1-1,.38h-2.2v6.12a2.46,2.46,0,0,0,.58,1.69,1.85,1.85,0,0,0,1.44.64h.75a1.29,1.29,0,0,1,1,.43,1.46,1.46,0,0,1,.38,1,1.35,1.35,0,0,1-.48,1.07,1.67,1.67,0,0,1-1.12.38Z"/><path class="cls-1" d="M92.53,120.1a6.78,6.78,0,0,1-3.61-1,7,7,0,0,1-2.51-2.63,7.58,7.58,0,0,1-.93-3.75,7.4,7.4,0,0,1,1-3.77,7.16,7.16,0,0,1,2.63-2.64,7.73,7.73,0,0,1,7.46,0A7.21,7.21,0,0,1,99.16,109a7.51,7.51,0,0,1,1,3.77v5.78a1.39,1.39,0,0,1-.42,1,1.55,1.55,0,0,1-2.08,0,1.33,1.33,0,0,1-.45-1v-.27a6.37,6.37,0,0,1-1.2.92A6.67,6.67,0,0,1,92.53,120.1Zm.3-12a4.42,4.42,0,0,0-2.28.61,4.89,4.89,0,0,0-1.62,6.44,4.55,4.55,0,0,0,1.62,1.67,4.39,4.39,0,0,0,2.28.6,4.34,4.34,0,0,0,2.28-.6,4.38,4.38,0,0,0,1.58-1.67,5.12,5.12,0,0,0,0-4.77,4.61,4.61,0,0,0-1.58-1.67A4.25,4.25,0,0,0,92.83,108.08Z"/><path d="M16.61,120a7.14,7.14,0,0,1-6.3-3.59,7.34,7.34,0,0,1-1-3.71V101a1.45,1.45,0,0,1,.4-1.07,1.49,1.49,0,0,1,1.07-.4,1.47,1.47,0,0,1,1.05.4,1.49,1.49,0,0,1,.4,1.07v6.1A6.35,6.35,0,0,1,13.81,106a6.66,6.66,0,0,1,3.13-.73,6.8,6.8,0,0,1,3.61,1,7,7,0,0,1,2.5,2.63,7.67,7.67,0,0,1,.91,3.74,7.46,7.46,0,0,1-1,3.78A7.26,7.26,0,0,1,20.38,119,7.4,7.4,0,0,1,16.61,120Zm0-12a4.34,4.34,0,0,0-2.25.61,4.23,4.23,0,0,0-1.59,1.66,5.21,5.21,0,0,0,0,4.78,4.37,4.37,0,0,0,1.59,1.66,4.25,4.25,0,0,0,2.25.62,4.39,4.39,0,0,0,2.31-.62A4.5,4.5,0,0,0,20.53,115a5.21,5.21,0,0,0,0-4.78,4.35,4.35,0,0,0-1.61-1.66A4.45,4.45,0,0,0,16.61,108Z"/><path d="M33.28,120a6.86,6.86,0,0,1-3.6-1,7,7,0,0,1-2.52-2.64,7.62,7.62,0,0,1-.92-3.74,7.46,7.46,0,0,1,1-3.78,7.21,7.21,0,0,1,2.63-2.63,7.75,7.75,0,0,1,7.47,0,7.18,7.18,0,0,1,2.62,2.63,7.67,7.67,0,0,1,1,3.77v5.79a1.41,1.41,0,0,1-.42,1,1.47,1.47,0,0,1-1,.39,1.51,1.51,0,0,1-1.06-.39,1.37,1.37,0,0,1-.44-1v-.27a6.44,6.44,0,0,1-1.21.92A6.62,6.62,0,0,1,33.28,120Zm.3-12a4.3,4.3,0,0,0-2.27.62,4.66,4.66,0,0,0-1.63,1.67,5.12,5.12,0,0,0,0,4.77,4.53,4.53,0,0,0,1.62,1.66,4.6,4.6,0,0,0,4.56,0A4.55,4.55,0,0,0,37.45,115a5.19,5.19,0,0,0,0-4.77,4.55,4.55,0,0,0-1.59-1.67A4.23,4.23,0,0,0,33.58,108Z"/><path d="M50.48,125.34a8.28,8.28,0,0,1-3.58-.76,7.57,7.57,0,0,1-2.68-2.14,1.28,1.28,0,0,1-.31-1,1.23,1.23,0,0,1,.58-.89,1.45,1.45,0,0,1,.82-.26,1.24,1.24,0,0,1,.27,0,1.39,1.39,0,0,1,.93.58,4.58,4.58,0,0,0,1.64,1.27,5.41,5.41,0,0,0,2.38.49,4.4,4.4,0,0,0,2.22-.58,4.16,4.16,0,0,0,1.59-1.68,5.69,5.69,0,0,0,.59-2.53A6,6,0,0,1,50.18,120a7.08,7.08,0,0,1-3.65-.94,6.71,6.71,0,0,1-2.5-2.62,7.83,7.83,0,0,1-.9-3.79,7.6,7.6,0,0,1,.95-3.82,7,7,0,0,1,2.62-2.62,8.11,8.11,0,0,1,7.54,0,6.89,6.89,0,0,1,2.6,2.62,7.8,7.8,0,0,1,1,3.81v5.21a7.72,7.72,0,0,1-.95,3.81,7.09,7.09,0,0,1-6.37,3.69Zm0-17.38a4.55,4.55,0,0,0-2.32.6,4.28,4.28,0,0,0-1.59,1.65,5.28,5.28,0,0,0,0,4.85,4.39,4.39,0,0,0,1.59,1.64,4.55,4.55,0,0,0,2.32.59,4.48,4.48,0,0,0,2.31-.59,4.32,4.32,0,0,0,1.56-1.64,5.36,5.36,0,0,0,0-4.85,4.2,4.2,0,0,0-1.56-1.65A4.39,4.39,0,0,0,50.48,108Z"/><path d="M67.43,120a7.7,7.7,0,0,1-3.82-.94A6.8,6.8,0,0,1,61,116.44a7.6,7.6,0,0,1-.95-3.8,7.79,7.79,0,0,1,.9-3.8,6.79,6.79,0,0,1,2.48-2.62,7,7,0,0,1,3.64-1,6.55,6.55,0,0,1,3.52.92,6.18,6.18,0,0,1,2.33,2.55,8.1,8.1,0,0,1,.8,3.65,1.33,1.33,0,0,1-.4,1,1.4,1.4,0,0,1-1,.37H62.88a4.63,4.63,0,0,0,.5,1.33A4.31,4.31,0,0,0,65,116.72a4.9,4.9,0,0,0,2.42.6A5.2,5.2,0,0,0,69,117a3.93,3.93,0,0,0,1.28-.68,1.6,1.6,0,0,1,.93-.33h0a1.28,1.28,0,0,1,.92.31,1.36,1.36,0,0,1,.52,1,1.15,1.15,0,0,1-.49,1A7,7,0,0,1,70,119.52,7.72,7.72,0,0,1,67.43,120Zm3.46-8.78a5,5,0,0,0-.38-1.15,3.73,3.73,0,0,0-1.35-1.56,3.86,3.86,0,0,0-2.11-.56,4.32,4.32,0,0,0-2.28.59,3.86,3.86,0,0,0-1.47,1.65,5,5,0,0,0-.37,1Z"/><path d="M81.77,119.86a4.73,4.73,0,0,1-4.29-2.56,5.56,5.56,0,0,1-.63-2.66v-6.13H75.77a1.35,1.35,0,0,1-1-.37,1.26,1.26,0,0,1-.4-.93,1.29,1.29,0,0,1,.4-.95,1.4,1.4,0,0,1,1-.37h1.08v-3.4a1.43,1.43,0,0,1,.4-1,1.5,1.5,0,0,1,2.08,0,1.38,1.38,0,0,1,.42,1v3.4H82a1.4,1.4,0,0,1,1,.37,1.29,1.29,0,0,1,.4.95,1.26,1.26,0,0,1-.4.93,1.35,1.35,0,0,1-1,.37h-2.2v6.13a2.42,2.42,0,0,0,.58,1.68,1.82,1.82,0,0,0,1.44.64h.75a1.29,1.29,0,0,1,1,.43,1.49,1.49,0,0,1,.38,1,1.32,1.32,0,0,1-.48,1.06,1.62,1.62,0,0,1-1.12.38Z"/><path d="M92.52,120a6.87,6.87,0,0,1-3.61-1,7,7,0,0,1-2.51-2.64,7.92,7.92,0,0,1,0-7.52,7.14,7.14,0,0,1,2.63-2.63,7.73,7.73,0,0,1,7.46,0,7.18,7.18,0,0,1,2.62,2.63,7.57,7.57,0,0,1,1,3.77v5.79a1.41,1.41,0,0,1-.42,1,1.45,1.45,0,0,1-1,.39,1.48,1.48,0,0,1-1-.39,1.35,1.35,0,0,1-.45-1v-.27a6.37,6.37,0,0,1-1.2.92A6.67,6.67,0,0,1,92.52,120Zm.3-12a4.33,4.33,0,0,0-2.28.62,4.63,4.63,0,0,0-1.62,1.67,5,5,0,0,0,0,4.77,4.45,4.45,0,0,0,1.62,1.66,4.6,4.6,0,0,0,4.56,0A4.53,4.53,0,0,0,96.68,115a5.12,5.12,0,0,0,0-4.77,4.53,4.53,0,0,0-1.58-1.67A4.26,4.26,0,0,0,92.82,108Z"/><path class="cls-1" d="M16.61,120a7.14,7.14,0,0,1-6.3-3.59,7.34,7.34,0,0,1-1-3.71V101a1.45,1.45,0,0,1,.4-1.07,1.49,1.49,0,0,1,1.07-.4,1.47,1.47,0,0,1,1.05.4,1.49,1.49,0,0,1,.4,1.07v6.1A6.35,6.35,0,0,1,13.81,106a6.66,6.66,0,0,1,3.13-.73,6.8,6.8,0,0,1,3.61,1,7,7,0,0,1,2.5,2.63,7.67,7.67,0,0,1,.91,3.74,7.46,7.46,0,0,1-1,3.78A7.26,7.26,0,0,1,20.38,119,7.4,7.4,0,0,1,16.61,120Zm0-12a4.34,4.34,0,0,0-2.25.61,4.23,4.23,0,0,0-1.59,1.66,5.21,5.21,0,0,0,0,4.78,4.37,4.37,0,0,0,1.59,1.66,4.25,4.25,0,0,0,2.25.62,4.39,4.39,0,0,0,2.31-.62A4.5,4.5,0,0,0,20.53,115a5.21,5.21,0,0,0,0-4.78,4.35,4.35,0,0,0-1.61-1.66A4.45,4.45,0,0,0,16.61,108Z"/><path class="cls-1" d="M33.28,120a6.86,6.86,0,0,1-3.6-1,7,7,0,0,1-2.52-2.64,7.62,7.62,0,0,1-.92-3.74,7.46,7.46,0,0,1,1-3.78,7.21,7.21,0,0,1,2.63-2.63,7.75,7.75,0,0,1,7.47,0,7.18,7.18,0,0,1,2.62,2.63,7.67,7.67,0,0,1,1,3.77v5.79a1.41,1.41,0,0,1-.42,1,1.47,1.47,0,0,1-1,.39,1.51,1.51,0,0,1-1.06-.39,1.37,1.37,0,0,1-.44-1v-.27a6.44,6.44,0,0,1-1.21.92A6.62,6.62,0,0,1,33.28,120Zm.3-12a4.3,4.3,0,0,0-2.27.62,4.66,4.66,0,0,0-1.63,1.67,5.12,5.12,0,0,0,0,4.77,4.53,4.53,0,0,0,1.62,1.66,4.6,4.6,0,0,0,4.56,0A4.55,4.55,0,0,0,37.45,115a5.19,5.19,0,0,0,0-4.77,4.55,4.55,0,0,0-1.59-1.67A4.23,4.23,0,0,0,33.58,108Z"/><path class="cls-1" d="M50.48,125.34a8.28,8.28,0,0,1-3.58-.76,7.57,7.57,0,0,1-2.68-2.14,1.28,1.28,0,0,1-.31-1,1.23,1.23,0,0,1,.58-.89,1.45,1.45,0,0,1,.82-.26,1.24,1.24,0,0,1,.27,0,1.39,1.39,0,0,1,.93.58,4.58,4.58,0,0,0,1.64,1.27,5.41,5.41,0,0,0,2.38.49,4.4,4.4,0,0,0,2.22-.58,4.16,4.16,0,0,0,1.59-1.68,5.69,5.69,0,0,0,.59-2.53A6,6,0,0,1,50.18,120a7.08,7.08,0,0,1-3.65-.94,6.71,6.71,0,0,1-2.5-2.62,7.83,7.83,0,0,1-.9-3.79,7.6,7.6,0,0,1,.95-3.82,7,7,0,0,1,2.62-2.62,8.11,8.11,0,0,1,7.54,0,6.89,6.89,0,0,1,2.6,2.62,7.8,7.8,0,0,1,1,3.81v5.21a7.72,7.72,0,0,1-.95,3.81,7.09,7.09,0,0,1-6.37,3.69Zm0-17.38a4.55,4.55,0,0,0-2.32.6,4.28,4.28,0,0,0-1.59,1.65,5.28,5.28,0,0,0,0,4.85,4.39,4.39,0,0,0,1.59,1.64,4.55,4.55,0,0,0,2.32.59,4.48,4.48,0,0,0,2.31-.59,4.32,4.32,0,0,0,1.56-1.64,5.36,5.36,0,0,0,0-4.85,4.2,4.2,0,0,0-1.56-1.65A4.39,4.39,0,0,0,50.48,108Z"/><path class="cls-1" d="M67.43,120a7.7,7.7,0,0,1-3.82-.94A6.8,6.8,0,0,1,61,116.44a7.6,7.6,0,0,1-.95-3.8,7.79,7.79,0,0,1,.9-3.8,6.79,6.79,0,0,1,2.48-2.62,7,7,0,0,1,3.64-1,6.55,6.55,0,0,1,3.52.92,6.18,6.18,0,0,1,2.33,2.55,8.1,8.1,0,0,1,.8,3.65,1.33,1.33,0,0,1-.4,1,1.4,1.4,0,0,1-1,.37H62.88a4.63,4.63,0,0,0,.5,1.33A4.31,4.31,0,0,0,65,116.72a4.9,4.9,0,0,0,2.42.6A5.2,5.2,0,0,0,69,117a3.93,3.93,0,0,0,1.28-.68,1.6,1.6,0,0,1,.93-.33h0a1.28,1.28,0,0,1,.92.31,1.36,1.36,0,0,1,.52,1,1.15,1.15,0,0,1-.49,1A7,7,0,0,1,70,119.52,7.72,7.72,0,0,1,67.43,120Zm3.46-8.78a5,5,0,0,0-.38-1.15,3.73,3.73,0,0,0-1.35-1.56,3.86,3.86,0,0,0-2.11-.56,4.32,4.32,0,0,0-2.28.59,3.86,3.86,0,0,0-1.47,1.65,5,5,0,0,0-.37,1Z"/><path class="cls-1" d="M81.77,119.86a4.73,4.73,0,0,1-4.29-2.56,5.56,5.56,0,0,1-.63-2.66v-6.13H75.77a1.35,1.35,0,0,1-1-.37,1.26,1.26,0,0,1-.4-.93,1.29,1.29,0,0,1,.4-.95,1.4,1.4,0,0,1,1-.37h1.08v-3.4a1.43,1.43,0,0,1,.4-1,1.5,1.5,0,0,1,2.08,0,1.38,1.38,0,0,1,.42,1v3.4H82a1.4,1.4,0,0,1,1,.37,1.29,1.29,0,0,1,.4.95,1.26,1.26,0,0,1-.4.93,1.35,1.35,0,0,1-1,.37h-2.2v6.13a2.42,2.42,0,0,0,.58,1.68,1.82,1.82,0,0,0,1.44.64h.75a1.29,1.29,0,0,1,1,.43,1.49,1.49,0,0,1,.38,1,1.32,1.32,0,0,1-.48,1.06,1.62,1.62,0,0,1-1.12.38Z"/><path class="cls-1" d="M92.52,120a6.87,6.87,0,0,1-3.61-1,7,7,0,0,1-2.51-2.64,7.92,7.92,0,0,1,0-7.52,7.14,7.14,0,0,1,2.63-2.63,7.73,7.73,0,0,1,7.46,0,7.18,7.18,0,0,1,2.62,2.63,7.57,7.57,0,0,1,1,3.77v5.79a1.41,1.41,0,0,1-.42,1,1.45,1.45,0,0,1-1,.39,1.48,1.48,0,0,1-1-.39,1.35,1.35,0,0,1-.45-1v-.27a6.37,6.37,0,0,1-1.2.92A6.67,6.67,0,0,1,92.52,120Zm.3-12a4.33,4.33,0,0,0-2.28.62,4.63,4.63,0,0,0-1.62,1.67,5,5,0,0,0,0,4.77,4.45,4.45,0,0,0,1.62,1.66,4.6,4.6,0,0,0,4.56,0A4.53,4.53,0,0,0,96.68,115a5.12,5.12,0,0,0,0-4.77,4.53,4.53,0,0,0-1.58-1.67A4.26,4.26,0,0,0,92.82,108Z"/></g></mask></defs><g id="Layer_2" data-name="Layer 2"><g id="Layer_1-2" data-name="Layer 1"><line class="cls-2" x1="2.97" y1="59.35" x2="10.62" y2="59.35"/><line class="cls-2" x1="3.29" y1="82.14" x2="19.21" y2="82.14"/><line class="cls-2" x1="6.51" y1="70.12" x2="14.16" y2="70.12"/><line class="cls-2" x1="16.21" y1="38.95" x2="2.71" y2="38.95"/><line class="cls-2" x1="15.91" y1="24.72" x2="15.91" y2="24.72"/><line class="cls-2" x1="24.91" y1="24.72" x2="70.82" y2="24.72"/><line class="cls-2" x1="81.65" y1="13.77" x2="101.81" y2="13.77"/><line class="cls-2" x1="71.04" y1="13.77" x2="41.2" y2="13.77"/><line class="cls-2" x1="99.17" y1="2.82" x2="135.95" y2="2.82"/><line class="cls-2" x1="92.16" y1="2.82" x2="92.27" y2="2.82"/><line class="cls-2" x1="84.16" y1="2.82" x2="67.27" y2="2.82"/><g class="cls-3"><line class="cls-4" x1="1.5" y1="123.72" x2="165" y2="123.72"/></g><path d="M16.62,119.59a6.76,6.76,0,0,1-6-3.39,6.92,6.92,0,0,1-.93-3.51V101a1.06,1.06,0,0,1,.28-.79,1.08,1.08,0,0,1,.79-.29,1,1,0,0,1,.76.29,1.07,1.07,0,0,1,.29.79v7.15A6.17,6.17,0,0,1,14,106.35a6.41,6.41,0,0,1,3-.68,6.39,6.39,0,0,1,3.4.91,6.5,6.5,0,0,1,2.36,2.49,7.21,7.21,0,0,1,.87,3.55,7,7,0,0,1-.92,3.57,6.78,6.78,0,0,1-2.47,2.49A6.91,6.91,0,0,1,16.62,119.59Zm0-1.9a4.74,4.74,0,0,0,2.51-.67,4.93,4.93,0,0,0,1.75-1.82,5.22,5.22,0,0,0,.64-2.58,5.31,5.31,0,0,0-.64-2.58,4.75,4.75,0,0,0-4.26-2.47,4.76,4.76,0,0,0-2.47.66A4.63,4.63,0,0,0,12.42,110a5.3,5.3,0,0,0-.63,2.58,5.22,5.22,0,0,0,.63,2.58A4.73,4.73,0,0,0,14.15,117,4.67,4.67,0,0,0,16.62,117.69Z"/><path d="M33.29,119.59a6.39,6.39,0,0,1-3.4-.91,6.6,6.6,0,0,1-2.37-2.49,7.11,7.11,0,0,1-.88-3.55,7,7,0,0,1,.91-3.57A6.76,6.76,0,0,1,30,106.58a7.3,7.3,0,0,1,7.06,0,6.81,6.81,0,0,1,2.48,2.49,7.19,7.19,0,0,1,.94,3.57l-.86.43a6.57,6.57,0,0,1-.83,3.32,6.4,6.4,0,0,1-2.28,2.34A6.25,6.25,0,0,1,33.29,119.59Zm.3-1.9a4.73,4.73,0,0,0,2.49-.66,4.83,4.83,0,0,0,1.72-1.81,5.54,5.54,0,0,0,0-5.17,5,5,0,0,0-1.72-1.81,4.64,4.64,0,0,0-2.49-.67,4.69,4.69,0,0,0-2.49.67,5,5,0,0,0-1.76,1.81,5.47,5.47,0,0,0,0,5.17A4.85,4.85,0,0,0,31.1,117,4.78,4.78,0,0,0,33.59,117.69Zm5.88,1.78a1.13,1.13,0,0,1-.79-.29,1,1,0,0,1-.31-.76v-4.13l.47-2.17,1.68.52v5.78a1,1,0,0,1-1.05,1Z"/><path d="M50.19,119.59a6.57,6.57,0,0,1-3.45-.89,6.25,6.25,0,0,1-2.35-2.46,7.42,7.42,0,0,1-.85-3.6,7.18,7.18,0,0,1,.9-3.62,6.55,6.55,0,0,1,2.46-2.47,7.7,7.7,0,0,1,7.15,0A6.46,6.46,0,0,1,56.5,109a7.39,7.39,0,0,1,.91,3.62l-1.25.43a7.21,7.21,0,0,1-.76,3.37,5.68,5.68,0,0,1-5.21,3.15Zm.3,5.35a7.83,7.83,0,0,1-3.41-.72,7.1,7.1,0,0,1-2.54-2,.87.87,0,0,1-.22-.71.8.8,0,0,1,.4-.61,1,1,0,0,1,.8-.18,1,1,0,0,1,.67.43,5.14,5.14,0,0,0,1.8,1.4,5.84,5.84,0,0,0,2.55.52A4.75,4.75,0,0,0,53,122.4a4.44,4.44,0,0,0,1.73-1.83,5.94,5.94,0,0,0,.64-2.85V114l.75-1.7,1.32.32v5.2a7.24,7.24,0,0,1-.89,3.61,6.68,6.68,0,0,1-6,3.49Zm0-7.25A4.72,4.72,0,0,0,53,117a4.63,4.63,0,0,0,1.72-1.79,5.36,5.36,0,0,0,.62-2.61,5.45,5.45,0,0,0-.62-2.62,4.59,4.59,0,0,0-1.72-1.8,4.72,4.72,0,0,0-2.51-.65,4.78,4.78,0,0,0-2.52.65,4.57,4.57,0,0,0-1.74,1.8,5.24,5.24,0,0,0-.64,2.62,5.15,5.15,0,0,0,.64,2.61A4.61,4.61,0,0,0,48,117,4.78,4.78,0,0,0,50.49,117.69Z"/><path d="M69.24,119.2a7.19,7.19,0,0,1-3.73.09,6.33,6.33,0,0,1-3-1.73,7,7,0,0,1-1.81-3.24,7.47,7.47,0,0,1-.13-3.71,6.38,6.38,0,0,1,4.7-4.75,6.22,6.22,0,0,1,3.42,0,5.69,5.69,0,0,1,2.72,1.73A7.63,7.63,0,0,1,73,110.72a.91.91,0,0,1-.09.73.94.94,0,0,1-.6.44l-10.09,2.73L61.8,113,72,110.19l-.84,1A5.66,5.66,0,0,0,70,108.94a4,4,0,0,0-4.31-1.27A4.62,4.62,0,0,0,63.5,109a4.25,4.25,0,0,0-1.1,2.17,5.91,5.91,0,0,0,.15,2.69,5.29,5.29,0,0,0,1.31,2.37,4.75,4.75,0,0,0,2.2,1.27,5.14,5.14,0,0,0,2.69-.06,5.37,5.37,0,0,0,1.6-.74,4.29,4.29,0,0,0,1.17-1.09,1.11,1.11,0,0,1,.6-.41.81.81,0,0,1,.67,0,1,1,0,0,1,.56.57.79.79,0,0,1-.16.72,6.54,6.54,0,0,1-1.73,1.65A7.06,7.06,0,0,1,69.24,119.2Z"/><path d="M75.79,108.12a1,1,0,0,1-.7-.27.83.83,0,0,1-.27-.63.9.9,0,0,1,.27-.67,1,1,0,0,1,.7-.26H82a1,1,0,0,1,.7.26.88.88,0,0,1,.28.67.81.81,0,0,1-.28.63.94.94,0,0,1-.7.27Zm6,11.35a4.36,4.36,0,0,1-3.94-2.35,5.21,5.21,0,0,1-.58-2.48V102.49a1,1,0,0,1,.28-.75,1.06,1.06,0,0,1,1.82.75v12.15a2.79,2.79,0,0,0,.68,2,2.22,2.22,0,0,0,1.74.78h.75a.86.86,0,0,1,.67.3,1,1,0,0,1,.28.75.94.94,0,0,1-.34.76,1.28,1.28,0,0,1-.86.29Z"/><path d="M92.54,119.59a6.39,6.39,0,0,1-3.4-.91,6.7,6.7,0,0,1-2.38-2.49,7.21,7.21,0,0,1-.87-3.55,7,7,0,0,1,.91-3.57,6.76,6.76,0,0,1,2.49-2.49,7.3,7.3,0,0,1,7.06,0,6.81,6.81,0,0,1,2.48,2.49,7.08,7.08,0,0,1,.93,3.57l-.85.43a6.57,6.57,0,0,1-.83,3.32,6.4,6.4,0,0,1-2.28,2.34A6.25,6.25,0,0,1,92.54,119.59Zm.3-1.9a4.73,4.73,0,0,0,2.49-.66,4.83,4.83,0,0,0,1.72-1.81,5.54,5.54,0,0,0,0-5.17,5,5,0,0,0-1.72-1.81,4.64,4.64,0,0,0-2.49-.67,4.69,4.69,0,0,0-2.49.67,5,5,0,0,0-1.76,1.81,5.47,5.47,0,0,0,0,5.17A4.85,4.85,0,0,0,90.35,117,4.78,4.78,0,0,0,92.84,117.69Zm5.87,1.78a1.12,1.12,0,0,1-.78-.29,1,1,0,0,1-.31-.76v-4.13l.47-2.17,1.67.52v5.78a1,1,0,0,1-.3.76A1.05,1.05,0,0,1,98.71,119.47Z"/><path d="M10.56,154.54a1.66,1.66,0,0,1-1.69-1.69v-22a1.63,1.63,0,0,1,.48-1.22,1.66,1.66,0,0,1,1.21-.47h14.7a1.66,1.66,0,0,1,1.21.44,1.52,1.52,0,0,1,.45,1.15,1.45,1.45,0,0,1-.45,1.11,1.73,1.73,0,0,1-1.21.42h-13v7.91h9.34a1.62,1.62,0,0,1,1.2.44,1.46,1.46,0,0,1,.46,1.12,1.47,1.47,0,0,1-.46,1.12,1.66,1.66,0,0,1-1.2.44H12.25v8.14h13a1.73,1.73,0,0,1,1.21.42,1.45,1.45,0,0,1,.45,1.11,1.54,1.54,0,0,1-.45,1.15,1.7,1.7,0,0,1-1.21.44Z"/><path d="M31.54,154.54a1.4,1.4,0,0,1-1.13-.47A1.71,1.71,0,0,1,30,153a1.86,1.86,0,0,1,.39-1.15l8.19-10.94,1.47-1.3,7.48-9.95a1.58,1.58,0,0,1,1.21-.49,1.39,1.39,0,0,1,1.07.42,1.6,1.6,0,0,1,.42,1,2,2,0,0,1-.35,1.21L42,142.34l-1.4,1.23-7.87,10.48A1.6,1.6,0,0,1,31.54,154.54Zm17,0a1.67,1.67,0,0,1-.73-.15,1.56,1.56,0,0,1-.57-.47l-7.58-10.51-1.2-1-7.65-10.6a1.6,1.6,0,0,1-.33-1.14,1.87,1.87,0,0,1,.48-1.08,1.63,1.63,0,0,1,2.29,0l7.22,10,1.24,1,8,11.16a1.83,1.83,0,0,1-.09,2.27A1.4,1.4,0,0,1,48.56,154.54Z"/><path d="M56.63,154.54a1.67,1.67,0,0,1-1.69-1.69v-22a1.6,1.6,0,0,1,.49-1.22,1.62,1.62,0,0,1,1.2-.47h6.51a8.66,8.66,0,0,1,4.33,1.07,7.66,7.66,0,0,1,2.94,3,8.92,8.92,0,0,1,1.06,4.37,8.41,8.41,0,0,1-1.06,4.23,7.45,7.45,0,0,1-2.94,2.9,8.86,8.86,0,0,1-4.33,1H58.32v7.13a1.64,1.64,0,0,1-.47,1.2A1.6,1.6,0,0,1,56.63,154.54Zm1.69-11.94h4.82a5.23,5.23,0,0,0,2.63-.65,4.73,4.73,0,0,0,1.79-1.79,5.11,5.11,0,0,0,.65-2.61,5.52,5.52,0,0,0-.65-2.74,4.83,4.83,0,0,0-1.79-1.88,5,5,0,0,0-2.63-.68H58.32Z"/><path d="M76.9,154.54a1.67,1.67,0,0,1-1.69-1.69v-22a1.6,1.6,0,0,1,.49-1.22,1.62,1.62,0,0,1,1.2-.47h5.86a9,9,0,0,1,4.33,1A7.6,7.6,0,0,1,90,133a8.07,8.07,0,0,1,1.06,4.16,7.24,7.24,0,0,1-4,6.64,9.3,9.3,0,0,1-4.33,1H78.59v8.11a1.64,1.64,0,0,1-.47,1.2A1.6,1.6,0,0,1,76.9,154.54Zm1.69-12.92h4.17a5.79,5.79,0,0,0,2.63-.57,4.39,4.39,0,0,0,1.79-1.59,4.22,4.22,0,0,0,.65-2.33,4.88,4.88,0,0,0-.65-2.54,4.56,4.56,0,0,0-1.79-1.72,5.44,5.44,0,0,0-2.63-.62H78.59ZM90.4,154.54a1.78,1.78,0,0,1-.83-.2,1.6,1.6,0,0,1-.63-.61l-5.86-9.44,3.29-.94,5.34,8.59a1.71,1.71,0,0,1,.16,1.77A1.51,1.51,0,0,1,90.4,154.54Z"/><path d="M97.46,154.54a1.63,1.63,0,0,1-1.2-.49,1.65,1.65,0,0,1-.49-1.2v-22a1.63,1.63,0,0,1,.49-1.22,1.65,1.65,0,0,1,1.2-.47h14.71a1.66,1.66,0,0,1,1.21.44,1.52,1.52,0,0,1,.45,1.15,1.45,1.45,0,0,1-.45,1.11,1.73,1.73,0,0,1-1.21.42h-13v7.91h9.33a1.64,1.64,0,0,1,1.21.44,1.48,1.48,0,0,1,.45,1.12,1.5,1.5,0,0,1-.45,1.12,1.68,1.68,0,0,1-1.21.44H99.16v8.14h13a1.73,1.73,0,0,1,1.21.42,1.45,1.45,0,0,1,.45,1.11,1.54,1.54,0,0,1-.45,1.15,1.7,1.7,0,0,1-1.21.44Z"/><path d="M126.85,154.54a11.64,11.64,0,0,1-3.87-.64,9.82,9.82,0,0,1-3.21-1.78,7,7,0,0,1-2-2.63,1.27,1.27,0,0,1,0-1.24,1.59,1.59,0,0,1,1.13-.73,1.56,1.56,0,0,1,1.13.17,2,2,0,0,1,.84.91,4.06,4.06,0,0,0,1.26,1.46,7.1,7.1,0,0,0,2.11,1.08,8,8,0,0,0,2.6.41,8.26,8.26,0,0,0,2.82-.47,5.05,5.05,0,0,0,2.08-1.39,3.25,3.25,0,0,0,.79-2.23,4.18,4.18,0,0,0-1.32-3,7,7,0,0,0-4.33-1.65,10.93,10.93,0,0,1-6.2-2.32,6.08,6.08,0,0,1-2.25-4.8,5.53,5.53,0,0,1,1.17-3.56,7.34,7.34,0,0,1,3.19-2.22,12.65,12.65,0,0,1,4.5-.76,9.63,9.63,0,0,1,3.38.54,8,8,0,0,1,2.53,1.49,9.63,9.63,0,0,1,1.87,2.26,2,2,0,0,1,.37,1.31,1.31,1.31,0,0,1-.62,1,1.46,1.46,0,0,1-1.3.16,1.76,1.76,0,0,1-1.05-.83,5.61,5.61,0,0,0-1.24-1.55,5.33,5.33,0,0,0-1.72-1,6.49,6.49,0,0,0-2.32-.37,7.61,7.61,0,0,0-3.94.88,3,3,0,0,0-1.58,2.78,3.63,3.63,0,0,0,.49,1.82A4,4,0,0,0,124,139.1a11.91,11.91,0,0,0,3.8.89,10,10,0,0,1,5.89,2.3,6.52,6.52,0,0,1,2.11,5.07,6.26,6.26,0,0,1-.75,3.14,6.7,6.7,0,0,1-2,2.24,8.58,8.58,0,0,1-2.86,1.35A12.2,12.2,0,0,1,126.85,154.54Z"/><path d="M148.71,154.54a11.65,11.65,0,0,1-3.88-.64,9.82,9.82,0,0,1-3.21-1.78,7.07,7.07,0,0,1-2-2.63,1.27,1.27,0,0,1,0-1.24,1.57,1.57,0,0,1,1.13-.73,1.54,1.54,0,0,1,1.12.17,2,2,0,0,1,.85.91,4,4,0,0,0,1.25,1.46,7.22,7.22,0,0,0,2.11,1.08,8.1,8.1,0,0,0,2.61.41,8.24,8.24,0,0,0,2.81-.47,5,5,0,0,0,2.08-1.39,3.25,3.25,0,0,0,.79-2.23,4.21,4.21,0,0,0-1.31-3,7,7,0,0,0-4.34-1.65,10.89,10.89,0,0,1-6.19-2.32,6.06,6.06,0,0,1-2.26-4.8,5.48,5.48,0,0,1,1.18-3.56,7.28,7.28,0,0,1,3.19-2.22,12.55,12.55,0,0,1,4.49-.76,9.72,9.72,0,0,1,3.39.54,7.93,7.93,0,0,1,2.52,1.49,9.67,9.67,0,0,1,1.88,2.26,2,2,0,0,1,.36,1.31,1.28,1.28,0,0,1-.62,1,1.46,1.46,0,0,1-1.3.16,1.76,1.76,0,0,1-1-.83,5.61,5.61,0,0,0-1.24-1.55,5.39,5.39,0,0,0-1.71-1,6.53,6.53,0,0,0-2.32-.37,7.59,7.59,0,0,0-3.94.88,3,3,0,0,0-1.59,2.78,3.63,3.63,0,0,0,.49,1.82,4,4,0,0,0,1.81,1.51,12,12,0,0,0,3.8.89,10,10,0,0,1,5.89,2.3,6.52,6.52,0,0,1,2.11,5.07,6.26,6.26,0,0,1-.74,3.14,6.92,6.92,0,0,1-2,2.24,8.67,8.67,0,0,1-2.86,1.35A12.26,12.26,0,0,1,148.71,154.54Z"/><path class="cls-5" d="M164.64,33.58A10.13,10.13,0,0,1,163,42.24a13.3,13.3,0,0,1-7.27,5.28L23,83.45C17.19,85,9.84,82,8.27,76.15a3.79,3.79,0,0,1,2.66-4.64l4.64-1.25,7.05-1.91,5.26,3a5.61,5.61,0,0,0,7.64-2.07l3-5.27,20.69-5.61,5.26,3a5.6,5.6,0,0,0,7.64-2.06l3-5.28,20.68-5.6,5.27,3a5.59,5.59,0,0,0,7.63-2.07l3-5.27,20.69-5.61,5.27,3a5.6,5.6,0,0,0,7.63-2.06l3-5.28,7-1.9,4.66-1.26A3.71,3.71,0,0,1,164.64,33.58Z"/><path class="cls-5" d="M148.93,2.84c5.11,1.76,9.33,4.74,10.48,9s-2.68,8.9-6.85,11.16A11.73,11.73,0,0,1,150,24L14.56,60.71a9.75,9.75,0,0,1-1.43.27A12,12,0,0,1,6.8,60a8.74,8.74,0,0,1-5-5.47C-.35,46.74,9.48,37.1,18.08,32.87l-6,10.47a4.07,4.07,0,1,0,7.07,4l10.4-18.13L39,26.7,32.63,37.77a4.08,4.08,0,0,0,7.08,4L50.1,23.69l9.45-2.56L53.2,32.2a4.07,4.07,0,1,0,7.07,4l10.4-18.13,9.45-2.56L73.77,26.63a4.07,4.07,0,1,0,7.07,4.05l10.4-18.13L100.68,10,94.33,21.06a4.08,4.08,0,0,0,7.08,4.05L111.8,7l9.45-2.56L114.9,15.49a4.07,4.07,0,1,0,7.06,4L132.33,1.48a29.94,29.94,0,0,1,8.19-.35l-5.05,8.79A4.07,4.07,0,1,0,142.53,14Z"/><path class="cls-6" d="M153,23.22a2.37,2.37,0,0,1,2.86,1.68,2.42,2.42,0,0,1-.22,1.8,2.38,2.38,0,0,1-1.44,1.11l-2.48.67-25.06,6.79L115.1,38.39,90,45.18,78.49,48.31,53.42,55.1,41.87,58.22,16.8,65l-2.47.67A2.36,2.36,0,0,1,11.43,64a2.33,2.33,0,0,1,1.63-2.89l1.5-.41L150,24Z"/><path class="cls-7" d="M154.19,27.81a2.36,2.36,0,0,1,2.9,1.67,2.35,2.35,0,0,1-1.67,2.91l-7,1.9,3.32-5.81Z"/><path class="cls-8" d="M148.93,2.84,142.53,14a4.07,4.07,0,1,1-7.06-4.05l5.05-8.79a33.85,33.85,0,0,1,7.19,1.32l.31.09C148.32,2.65,148.63,2.74,148.93,2.84Z"/><path class="cls-8" d="M148.93,2.84c-.3-.1-.61-.19-.91-.3A8.81,8.81,0,0,1,148.93,2.84Z"/><path class="cls-9" d="M151.71,28.48l-3.32,5.81-3,5.28a5.6,5.6,0,0,1-7.63,2.06l-5.27-3-5.81-3.33Z"/><path class="cls-8" d="M132.33,1.48,122,19.54a4.07,4.07,0,1,1-7.06-4l6.35-11.06L131,1.78A10.13,10.13,0,0,1,132.33,1.48Z"/><polygon class="cls-7" points="132.46 38.6 111.77 44.21 115.1 38.39 126.65 35.27 132.46 38.6"/><path class="cls-8" d="M111.8,7,101.41,25.11a4.08,4.08,0,0,1-7.08-4.05L100.68,10Z"/><path class="cls-9" d="M115.1,38.39l-3.33,5.82-3,5.27a5.59,5.59,0,0,1-7.63,2.07l-5.27-3L90,45.18Z"/><path class="cls-8" d="M91.24,12.55,80.84,30.68a4.07,4.07,0,1,1-7.07-4.05l6.35-11.07Z"/><polygon class="cls-7" points="90.04 45.18 95.84 48.52 75.16 54.12 78.49 48.31 90.04 45.18"/><path class="cls-8" d="M70.67,18.12,60.27,36.25a4.07,4.07,0,1,1-7.07-4l6.35-11.07Z"/><path class="cls-9" d="M78.49,48.31l-3.33,5.81-3,5.28a5.6,5.6,0,0,1-7.64,2.06l-5.26-3L53.42,55.1Z"/><path class="cls-8" d="M50.1,23.69,39.71,41.82a4.08,4.08,0,0,1-7.08-4L39,26.7Z"/><polygon class="cls-7" points="59.23 58.44 38.54 64.04 41.87 58.23 53.41 55.1 59.23 58.44"/><path class="cls-9" d="M41.87,58.22,38.54,64l-3,5.27a5.61,5.61,0,0,1-7.64,2.07l-5.26-3L16.8,65Z"/><path class="cls-8" d="M29.54,29.26,19.14,47.39a4.07,4.07,0,1,1-7.07-4l6-10.47a25.16,25.16,0,0,1,4.32-1.68Z"/><path class="cls-7" d="M22.62,68.35l-7,1.91a2.37,2.37,0,1,1-1.24-4.58L16.8,65Z"/><path class="cls-10" d="M132.33,1.48a29.94,29.94,0,0,1,8.19-.35"/><line class="cls-10" x1="111.8" y1="6.99" x2="121.25" y2="4.43"/><line class="cls-10" x1="91.24" y1="12.55" x2="100.68" y2="10"/><line class="cls-10" x1="70.67" y1="18.12" x2="80.12" y2="15.56"/><line class="cls-10" x1="50.1" y1="23.69" x2="59.55" y2="21.13"/><line class="cls-10" x1="29.54" y1="29.26" x2="38.98" y2="26.7"/><path class="cls-10" d="M14.56,60.71a9.75,9.75,0,0,1-1.43.27A12,12,0,0,1,6.8,60a8.74,8.74,0,0,1-5-5.47C-.35,46.74,9.48,37.1,18.08,32.87"/><path class="cls-10" d="M148.93,2.84c5.11,1.76,9.33,4.74,10.48,9s-2.68,8.9-6.85,11.16A11.73,11.73,0,0,1,150,24"/><path class="cls-10" d="M14.33,65.68A2.36,2.36,0,0,1,11.43,64a2.33,2.33,0,0,1,1.63-2.89l1.5-.41L150,24l3-.81a2.37,2.37,0,0,1,2.86,1.68,2.42,2.42,0,0,1-.22,1.8,2.38,2.38,0,0,1-1.44,1.11"/><line class="cls-10" x1="41.87" y1="58.22" x2="16.8" y2="65.01"/><line class="cls-10" x1="78.49" y1="48.31" x2="53.42" y2="55.1"/><line class="cls-10" x1="115.1" y1="38.39" x2="90.04" y2="45.18"/><line class="cls-10" x1="151.71" y1="28.48" x2="126.65" y2="35.27"/><path class="cls-10" d="M15.57,70.26a2.37,2.37,0,1,1-1.24-4.58L16.8,65l5.82,3.34"/><polyline class="cls-10" points="38.54 64.04 41.87 58.23 53.41 55.1 59.23 58.44"/><polyline class="cls-10" points="75.16 54.12 78.49 48.31 90.04 45.18 95.84 48.52"/><polyline class="cls-10" points="111.77 44.21 115.1 38.39 126.65 35.27 132.46 38.6"/><path class="cls-10" d="M148.39,34.29l3.32-5.81,2.48-.67a2.36,2.36,0,0,1,2.9,1.67,2.35,2.35,0,0,1-1.67,2.91"/><path class="cls-10" d="M155.42,32.39l4.66-1.26a3.71,3.71,0,0,1,4.56,2.45A10.13,10.13,0,0,1,163,42.24a13.3,13.3,0,0,1-7.27,5.28L23,83.45C17.19,85,9.84,82,8.27,76.15a3.79,3.79,0,0,1,2.66-4.64l4.64-1.25,7.05-1.91,5.26,3a5.61,5.61,0,0,0,7.64-2.07l3-5.27,20.69-5.61,5.26,3a5.6,5.6,0,0,0,7.64-2.06l3-5.28,20.68-5.6,5.27,3a5.59,5.59,0,0,0,7.63-2.07l3-5.27,20.69-5.61,5.27,3a5.6,5.6,0,0,0,7.63-2.06l3-5.28Z"/><path class="cls-10" d="M29.54,29.26,19.14,47.39a4.07,4.07,0,1,1-7.07-4l6-10.47a25.16,25.16,0,0,1,4.32-1.68Z"/><path class="cls-10" d="M132.33,1.48,122,19.54a4.07,4.07,0,1,1-7.06-4l6.35-11.06L131,1.78A10.13,10.13,0,0,1,132.33,1.48Z"/><path class="cls-10" d="M111.8,7,101.41,25.11a4.08,4.08,0,0,1-7.08-4.05L100.68,10Z"/><path class="cls-10" d="M91.24,12.55,80.84,30.68a4.07,4.07,0,1,1-7.07-4.05l6.35-11.07Z"/><path class="cls-10" d="M148.93,2.84,142.53,14a4.07,4.07,0,1,1-7.06-4.05l5.05-8.79a33.85,33.85,0,0,1,7.19,1.32l.31.09A8.81,8.81,0,0,1,148.93,2.84Z"/><path class="cls-10" d="M70.67,18.12,60.27,36.25a4.07,4.07,0,1,1-7.07-4l6.35-11.07Z"/><path class="cls-10" d="M50.1,23.69,39.71,41.82a4.08,4.08,0,0,1-7.08-4L39,26.7Z"/><circle class="cls-11" cx="128.89" cy="13.99" r="7.83"/><circle class="cls-12" cx="129.68" cy="14.5" r="3.77"/><circle class="cls-13" cx="128.16" cy="13.24" r="0.55"/><path class="cls-14" d="M131.29,64.12h0a9.79,9.79,0,0,1-12-7l4.19-20.92,18.91-5-4.19,20.92A9.77,9.77,0,0,1,131.29,64.12Z"/><polyline class="cls-15" points="132.4 33.9 128.7 54.6 130.03 58.31"/><line class="cls-16" x1="125.09" y1="42.72" x2="123.34" y2="51.53"/><line class="cls-16" x1="23.18" y1="65.9" x2="27.77" y2="68.49"/><path class="cls-16" d="M101.23,48.88a3.84,3.84,0,0,0,3.3.55"/><circle class="cls-17" cx="99.04" cy="47.59" r="1"/><polyline class="cls-2" points="100.63 70.32 131.49 116.44 140.46 110.44"/><polyline class="cls-2" points="91.34 72.36 81.63 93.92 58.11 83.56 54.08 92.71"/></g></g></svg>