<svg xmlns="http://www.w3.org/2000/svg" viewBox="0 0 165.54 105.75"><defs><style>.cls-1,.cls-13,.cls-14,.cls-2,.cls-8{fill:none;}.cls-1,.cls-10,.cls-12,.cls-13,.cls-2,.cls-8,.cls-9{stroke:#000;}.cls-1,.cls-10,.cls-11,.cls-13,.cls-14,.cls-2{stroke-linecap:round;}.cls-1,.cls-10,.cls-11,.cls-14,.cls-8,.cls-9{stroke-miterlimit:10;}.cls-1{stroke-width:3px;}.cls-12,.cls-13,.cls-2{stroke-linejoin:round;}.cls-2{stroke-width:5px;}.cls-3{fill:#ffb84d;}.cls-4{fill:#3bbf4d;}.cls-12,.cls-5{fill:#ff4d4d;}.cls-6{fill:#a67c52;}.cls-7{fill:#ffff4d;}.cls-10,.cls-11,.cls-12,.cls-13,.cls-14,.cls-8,.cls-9{stroke-width:2px;}.cls-11,.cls-9{fill:#fff;}.cls-11,.cls-14{stroke:#fff;}</style></defs><g id="Layer_2" data-name="Layer 2"><g id="Layer_1-2" data-name="Layer 1"><line class="cls-1" x1="159.14" y1="104.25" x2="7.67" y2="104.25"/><line class="cls-2" x1="3.02" y1="59.57" x2="10.67" y2="59.57"/><line class="cls-2" x1="3.34" y1="82.36" x2="19.27" y2="82.36"/><line class="cls-2" x1="6.57" y1="70.34" x2="14.22" y2="70.34"/><line class="cls-2" x1="16.27" y1="39.17" x2="2.77" y2="39.17"/><line class="cls-2" x1="30.27" y1="32.05" x2="41.21" y2="32.05"/><line class="cls-2" x1="15.96" y1="24.94" x2="15.96" y2="24.94"/><line class="cls-2" x1="24.96" y1="24.94" x2="70.87" y2="24.94"/><line class="cls-2" x1="81.7" y1="13.99" x2="101.87" y2="13.99"/><line class="cls-2" x1="71.09" y1="13.99" x2="41.26" y2="13.99"/><line class="cls-2" x1="99.22" y1="3.04" x2="136" y2="3.04"/><line class="cls-2" x1="92.21" y1="3.04" x2="92.32" y2="3.04"/><line class="cls-2" x1="84.21" y1="3.04" x2="67.32" y2="3.04"/><path class="cls-3" d="M164.18,33.57a10.19,10.19,0,0,1-1.7,8.67,13.26,13.26,0,0,1-7.27,5.28L22.53,83.45C16.72,85,9.37,82,7.8,76.15a3.79,3.79,0,0,1,2.66-4.64l4.64-1.25,7-1.91,5.27,3a5.61,5.61,0,0,0,7.64-2.07l3-5.27,20.68-5.61,5.28,3a5.59,5.59,0,0,0,7.63-2.07l3-5.27,20.68-5.6,5.28,3a5.6,5.6,0,0,0,7.63-2.07l3-5.27L132,38.6l5.28,3a5.6,5.6,0,0,0,7.63-2.07l3-5.27,7-1.9,4.65-1.26A3.73,3.73,0,0,1,164.18,33.57Z"/><path class="cls-3" d="M148.46,2.84c5.12,1.76,9.33,4.74,10.48,9s-2.68,8.9-6.85,11.16A11.86,11.86,0,0,1,149.54,24L14.09,60.71a9.51,9.51,0,0,1-1.43.27,12,12,0,0,1-6.33-1,8.74,8.74,0,0,1-5-5.47C-.82,46.74,9,37.1,17.61,32.87l-6,10.47a4.07,4.07,0,1,0,7.06,4l10.4-18.13,9.44-2.56L32.17,37.77a4.07,4.07,0,1,0,7.07,4L49.63,23.69l9.45-2.56L52.73,32.2a4.07,4.07,0,1,0,7.07,4L70.2,18.12l9.45-2.56L73.3,26.63a4.07,4.07,0,1,0,7.07,4.05l10.4-18.13L100.21,10,93.86,21.06a4.08,4.08,0,0,0,7.08,4.05L111.33,7l9.45-2.56-6.35,11.06a4.07,4.07,0,1,0,7.07,4L131.87,1.48a29.85,29.85,0,0,1,8.18-.35L135,9.92A4.07,4.07,0,1,0,142.07,14Z"/><path class="cls-4" d="M152.52,23.22a2.38,2.38,0,0,1,2.87,1.68,2.42,2.42,0,0,1-.23,1.8,2.33,2.33,0,0,1-1.44,1.11l-2.47.67-25.07,6.79-11.54,3.12L89.57,45.18,78,48.31,53,55.1,41.4,58.22,16.34,65l-2.47.67a2.38,2.38,0,0,1-2.69-3.47,2.39,2.39,0,0,1,1.41-1.09l1.5-.41L149.54,24Z"/><path class="cls-5" d="M153.72,27.81a2.38,2.38,0,0,1,2.91,1.67,2.47,2.47,0,0,1-.23,1.8A2.39,2.39,0,0,1,155,32.39l-7,1.9,3.33-5.81Z"/><path class="cls-6" d="M148.46,2.84,142.07,14A4.07,4.07,0,1,1,135,9.92l5.05-8.79a33.85,33.85,0,0,1,7.19,1.32l.31.09Z"/><path class="cls-6" d="M148.46,2.84l-.91-.3A8.08,8.08,0,0,1,148.46,2.84Z"/><path class="cls-7" d="M151.25,28.48l-3.33,5.81-3,5.27a5.6,5.6,0,0,1-7.63,2.07l-5.28-3-5.81-3.33Z"/><path class="cls-6" d="M131.87,1.48,121.5,19.54a4.07,4.07,0,1,1-7.07-4l6.35-11.06,9.79-2.65A9.9,9.9,0,0,1,131.87,1.48Z"/><polygon class="cls-5" points="131.99 38.6 111.3 44.21 114.64 38.39 126.18 35.27 131.99 38.6"/><path class="cls-6" d="M111.33,7,100.94,25.11a4.08,4.08,0,0,1-7.08-4.05L100.21,10Z"/><path class="cls-7" d="M114.64,38.39l-3.34,5.82-3,5.27a5.6,5.6,0,0,1-7.63,2.07l-5.28-3-5.8-3.34Z"/><path class="cls-6" d="M90.77,12.55,80.37,30.68a4.07,4.07,0,1,1-7.07-4.05l6.35-11.07Z"/><polygon class="cls-5" points="89.57 45.18 95.37 48.52 74.69 54.12 78.02 48.31 89.57 45.18"/><path class="cls-6" d="M70.2,18.12,59.8,36.25a4.07,4.07,0,1,1-7.07-4l6.35-11.07Z"/><path class="cls-7" d="M78,48.31l-3.33,5.81-3,5.27A5.59,5.59,0,0,1,64,61.46l-5.28-3L53,55.1Z"/><path class="cls-6" d="M49.63,23.69,39.24,41.82a4.07,4.07,0,1,1-7.07-4L38.51,26.7Z"/><polygon class="cls-5" points="58.76 58.44 38.08 64.04 41.4 58.23 52.95 55.1 58.76 58.44"/><path class="cls-7" d="M41.4,58.22,38.08,64l-3,5.27a5.61,5.61,0,0,1-7.64,2.07l-5.27-3L16.34,65Z"/><path class="cls-6" d="M29.07,29.26,18.67,47.39a4.07,4.07,0,1,1-7.06-4l6-10.47a25.16,25.16,0,0,1,4.32-1.68Z"/><path class="cls-5" d="M22.15,68.35l-7,1.91a2.38,2.38,0,0,1-2.68-3.47,2.4,2.4,0,0,1,1.45-1.11L16.34,65Z"/><path class="cls-8" d="M131.87,1.48a29.85,29.85,0,0,1,8.18-.35"/><line class="cls-8" x1="111.33" y1="6.99" x2="120.78" y2="4.43"/><line class="cls-8" x1="90.77" y1="12.55" x2="100.21" y2="10"/><line class="cls-8" x1="70.2" y1="18.12" x2="79.65" y2="15.56"/><line class="cls-8" x1="49.63" y1="23.69" x2="59.08" y2="21.13"/><line class="cls-8" x1="29.07" y1="29.26" x2="38.51" y2="26.7"/><path class="cls-8" d="M14.09,60.71a9.51,9.51,0,0,1-1.43.27,12,12,0,0,1-6.33-1,8.74,8.74,0,0,1-5-5.47C-.82,46.74,9,37.1,17.61,32.87"/><path class="cls-8" d="M148.46,2.84c5.12,1.76,9.33,4.74,10.48,9s-2.68,8.9-6.85,11.16A11.86,11.86,0,0,1,149.54,24"/><path class="cls-8" d="M13.87,65.68a2.38,2.38,0,0,1-2.69-3.47,2.39,2.39,0,0,1,1.41-1.09l1.5-.41L149.54,24l3-.81a2.38,2.38,0,0,1,2.87,1.68,2.42,2.42,0,0,1-.23,1.8,2.33,2.33,0,0,1-1.44,1.11"/><line class="cls-8" x1="41.4" y1="58.22" x2="16.34" y2="65.01"/><line class="cls-8" x1="78.02" y1="48.31" x2="52.95" y2="55.1"/><line class="cls-8" x1="114.64" y1="38.39" x2="89.57" y2="45.18"/><line class="cls-8" x1="151.25" y1="28.48" x2="126.18" y2="35.27"/><path class="cls-8" d="M15.1,70.26a2.38,2.38,0,0,1-2.68-3.47,2.4,2.4,0,0,1,1.45-1.11L16.34,65l5.81,3.34"/><polyline class="cls-8" points="38.08 64.04 41.4 58.23 52.95 55.1 58.76 58.44"/><polyline class="cls-8" points="74.69 54.12 78.02 48.31 89.57 45.18 95.37 48.52"/><polyline class="cls-8" points="111.3 44.21 114.64 38.39 126.18 35.27 131.99 38.6"/><path class="cls-8" d="M147.92,34.29l3.33-5.81,2.47-.67a2.38,2.38,0,0,1,2.91,1.67,2.47,2.47,0,0,1-.23,1.8A2.39,2.39,0,0,1,155,32.39"/><path class="cls-8" d="M155,32.39l4.65-1.26a3.73,3.73,0,0,1,4.57,2.44,10.19,10.19,0,0,1-1.7,8.67,13.26,13.26,0,0,1-7.27,5.28L22.53,83.45C16.72,85,9.37,82,7.8,76.15a3.79,3.79,0,0,1,2.66-4.64l4.64-1.25,7-1.91,5.27,3a5.61,5.61,0,0,0,7.64-2.07l3-5.27,20.68-5.61,5.28,3a5.59,5.59,0,0,0,7.63-2.07l3-5.27,20.68-5.6,5.28,3a5.6,5.6,0,0,0,7.63-2.07l3-5.27L132,38.6l5.28,3a5.6,5.6,0,0,0,7.63-2.07l3-5.27Z"/><path class="cls-8" d="M29.07,29.26,18.67,47.39a4.07,4.07,0,1,1-7.06-4l6-10.47a25.16,25.16,0,0,1,4.32-1.68Z"/><path class="cls-8" d="M131.87,1.48,121.5,19.54a4.07,4.07,0,1,1-7.07-4l6.35-11.06,9.79-2.65A9.9,9.9,0,0,1,131.87,1.48Z"/><path class="cls-8" d="M111.33,7,100.94,25.11a4.08,4.08,0,0,1-7.08-4.05L100.21,10Z"/><path class="cls-8" d="M90.77,12.55,80.37,30.68a4.07,4.07,0,1,1-7.07-4.05l6.35-11.07Z"/><path class="cls-8" d="M148.46,2.84,142.07,14A4.07,4.07,0,1,1,135,9.92l5.05-8.79a33.85,33.85,0,0,1,7.19,1.32l.31.09A8.08,8.08,0,0,1,148.46,2.84Z"/><path class="cls-8" d="M70.2,18.12,59.8,36.25a4.07,4.07,0,1,1-7.07-4l6.35-11.07Z"/><path class="cls-8" d="M49.63,23.69,39.24,41.82a4.07,4.07,0,1,1-7.07-4L38.51,26.7Z"/><circle class="cls-9" cx="128.43" cy="13.99" r="7.83"/><circle class="cls-10" cx="129.21" cy="14.5" r="3.77"/><circle class="cls-11" cx="127.7" cy="13.24" r="0.55"/><path class="cls-12" d="M130.82,64.12h0a9.78,9.78,0,0,1-11.95-7l4.19-20.92,18.91-5-4.19,20.91A9.79,9.79,0,0,1,130.82,64.12Z"/><polyline class="cls-13" points="131.94 33.9 128.24 54.6 129.57 58.3"/><path class="cls-14" d="M101.28,49.1a3.84,3.84,0,0,0,3.3.55"/><line class="cls-14" x1="23.24" y1="66.12" x2="27.83" y2="68.71"/><line class="cls-14" x1="98.98" y1="47.88" x2="98.98" y2="47.88"/><line class="cls-14" x1="124.63" y1="42.71" x2="122.88" y2="51.53"/><polyline class="cls-2" points="99.94 69.69 136.21 98.02 141.72 90.96"/><polyline class="cls-2" points="89.2 73.98 81.42 93.67 59.96 85.38 56.73 93.73"/></g></g></svg>